<mxfile host="app.diagrams.net" modified="2024-01-25T05:19:51.219Z" agent="Mozilla/5.0 (Windows NT 10.0; Win64; x64) AppleWebKit/537.36 (KHTML, like Gecko) Chrome/120.0.0.0 Safari/537.36 Edg/120.0.0.0" etag="wwrzyGLIzz8OUhs_YFto" version="23.0.1" type="github">
  <diagram id="R2lEEEUBdFMjLlhIrx00" name="Page-1">
    <mxGraphModel dx="872" dy="1581" grid="1" gridSize="10" guides="1" tooltips="1" connect="1" arrows="1" fold="1" page="1" pageScale="1" pageWidth="850" pageHeight="1100" math="0" shadow="0" extFonts="Permanent Marker^https://fonts.googleapis.com/css?family=Permanent+Marker">
      <root>
        <mxCell id="0" />
        <mxCell id="1" parent="0" />
        <mxCell id="7UMvpG6QmPXauz13HVyL-45" style="edgeStyle=orthogonalEdgeStyle;rounded=0;orthogonalLoop=1;jettySize=auto;html=1;entryX=0.5;entryY=0;entryDx=0;entryDy=0;fillColor=#A9C4EB;endArrow=none;" parent="1" source="7UMvpG6QmPXauz13HVyL-1" target="7UMvpG6QmPXauz13HVyL-34" edge="1">
          <mxGeometry relative="1" as="geometry" />
        </mxCell>
        <mxCell id="7UMvpG6QmPXauz13HVyL-46" style="edgeStyle=orthogonalEdgeStyle;rounded=0;orthogonalLoop=1;jettySize=auto;html=1;entryX=0.5;entryY=0;entryDx=0;entryDy=0;fillColor=#A9C4EB;endArrow=none;" parent="1" source="7UMvpG6QmPXauz13HVyL-1" target="7UMvpG6QmPXauz13HVyL-31" edge="1">
          <mxGeometry relative="1" as="geometry" />
        </mxCell>
        <mxCell id="7UMvpG6QmPXauz13HVyL-129" value="" style="edgeStyle=orthogonalEdgeStyle;rounded=0;orthogonalLoop=1;jettySize=auto;html=1;endArrow=none;" parent="1" source="7UMvpG6QmPXauz13HVyL-1" target="7UMvpG6QmPXauz13HVyL-114" edge="1">
          <mxGeometry relative="1" as="geometry" />
        </mxCell>
        <mxCell id="7UMvpG6QmPXauz13HVyL-1" value="Library" style="rounded=0;whiteSpace=wrap;html=1;fillColor=#FFD966;strokeColor=#C28A55;" parent="1" vertex="1">
          <mxGeometry x="1100" y="-190" width="120" height="60" as="geometry" />
        </mxCell>
        <mxCell id="7UMvpG6QmPXauz13HVyL-2" style="edgeStyle=orthogonalEdgeStyle;rounded=0;orthogonalLoop=1;jettySize=auto;html=1;fillColor=#A9C4EB;endArrow=none;" parent="1" source="7UMvpG6QmPXauz13HVyL-3" edge="1">
          <mxGeometry relative="1" as="geometry">
            <Array as="points">
              <mxPoint x="1250" y="-210" />
              <mxPoint x="1170" y="-210" />
              <mxPoint x="1170" y="-190" />
            </Array>
            <mxPoint x="1170" y="-190" as="targetPoint" />
          </mxGeometry>
        </mxCell>
        <mxCell id="7UMvpG6QmPXauz13HVyL-3" value="&lt;u style=&quot;border-color: var(--border-color);&quot;&gt;LibraryID&lt;/u&gt;" style="ellipse;whiteSpace=wrap;html=1;fillColor=#A9C4EB;" parent="1" vertex="1">
          <mxGeometry x="1190" y="-250" width="120" height="30" as="geometry" />
        </mxCell>
        <mxCell id="7UMvpG6QmPXauz13HVyL-4" value="Name" style="ellipse;whiteSpace=wrap;html=1;fillColor=#A9C4EB;" parent="1" vertex="1">
          <mxGeometry x="1020" y="-250" width="120" height="30" as="geometry" />
        </mxCell>
        <mxCell id="7UMvpG6QmPXauz13HVyL-5" style="edgeStyle=orthogonalEdgeStyle;rounded=0;orthogonalLoop=1;jettySize=auto;html=1;entryX=-0.008;entryY=0.799;entryDx=0;entryDy=0;fillColor=#A9C4EB;endArrow=none;entryPerimeter=0;" parent="1" source="7UMvpG6QmPXauz13HVyL-6" target="7UMvpG6QmPXauz13HVyL-1" edge="1">
          <mxGeometry relative="1" as="geometry" />
        </mxCell>
        <mxCell id="7UMvpG6QmPXauz13HVyL-6" value="Location" style="ellipse;whiteSpace=wrap;html=1;fillColor=#A9C4EB;" parent="1" vertex="1">
          <mxGeometry x="940" y="-110" width="120" height="30" as="geometry" />
        </mxCell>
        <mxCell id="7UMvpG6QmPXauz13HVyL-7" style="edgeStyle=orthogonalEdgeStyle;rounded=0;orthogonalLoop=1;jettySize=auto;html=1;entryX=1;entryY=0.75;entryDx=0;entryDy=0;fillColor=#A9C4EB;endArrow=none;" parent="1" source="7UMvpG6QmPXauz13HVyL-8" target="7UMvpG6QmPXauz13HVyL-1" edge="1">
          <mxGeometry relative="1" as="geometry" />
        </mxCell>
        <mxCell id="7UMvpG6QmPXauz13HVyL-8" value="Contact Information" style="ellipse;whiteSpace=wrap;html=1;fillColor=#A9C4EB;" parent="1" vertex="1">
          <mxGeometry x="1260" y="-110" width="120" height="30" as="geometry" />
        </mxCell>
        <mxCell id="7UMvpG6QmPXauz13HVyL-9" style="edgeStyle=orthogonalEdgeStyle;rounded=0;orthogonalLoop=1;jettySize=auto;html=1;fillColor=#A9C4EB;endArrow=none;" parent="1" source="7UMvpG6QmPXauz13HVyL-4" edge="1">
          <mxGeometry relative="1" as="geometry">
            <Array as="points">
              <mxPoint x="1080" y="-210" />
              <mxPoint x="1147" y="-210" />
            </Array>
            <mxPoint x="1147" y="-190" as="targetPoint" />
          </mxGeometry>
        </mxCell>
        <mxCell id="7UMvpG6QmPXauz13HVyL-24" value="" style="edgeStyle=orthogonalEdgeStyle;rounded=0;orthogonalLoop=1;jettySize=auto;html=1;fillColor=#A9C4EB;endArrow=none;" parent="1" source="7UMvpG6QmPXauz13HVyL-12" target="7UMvpG6QmPXauz13HVyL-23" edge="1">
          <mxGeometry relative="1" as="geometry" />
        </mxCell>
        <mxCell id="7UMvpG6QmPXauz13HVyL-12" value="Institute Libraries" style="rounded=0;whiteSpace=wrap;html=1;fillColor=#FFD966;strokeColor=#C28A55;" parent="1" vertex="1">
          <mxGeometry x="1100" y="-465" width="120" height="60" as="geometry" />
        </mxCell>
        <mxCell id="7UMvpG6QmPXauz13HVyL-22" value="" style="edgeStyle=orthogonalEdgeStyle;rounded=0;orthogonalLoop=1;jettySize=auto;html=1;fillColor=#A9C4EB;endArrow=none;" parent="1" source="7UMvpG6QmPXauz13HVyL-14" target="7UMvpG6QmPXauz13HVyL-12" edge="1">
          <mxGeometry relative="1" as="geometry" />
        </mxCell>
        <mxCell id="7UMvpG6QmPXauz13HVyL-14" value="Location" style="ellipse;whiteSpace=wrap;html=1;fillColor=#A9C4EB;" parent="1" vertex="1">
          <mxGeometry x="1250" y="-450" width="120" height="30" as="geometry" />
        </mxCell>
        <mxCell id="7UMvpG6QmPXauz13HVyL-21" value="" style="edgeStyle=orthogonalEdgeStyle;rounded=0;orthogonalLoop=1;jettySize=auto;html=1;fillColor=#A9C4EB;endArrow=none;" parent="1" source="7UMvpG6QmPXauz13HVyL-16" target="7UMvpG6QmPXauz13HVyL-12" edge="1">
          <mxGeometry relative="1" as="geometry" />
        </mxCell>
        <mxCell id="7UMvpG6QmPXauz13HVyL-16" value="&lt;u style=&quot;border-color: var(--border-color);&quot;&gt;InstituteID&lt;/u&gt;" style="ellipse;whiteSpace=wrap;html=1;fillColor=#A9C4EB;" parent="1" vertex="1">
          <mxGeometry x="1100" y="-550" width="120" height="30" as="geometry" />
        </mxCell>
        <mxCell id="7UMvpG6QmPXauz13HVyL-17" value="Name" style="ellipse;whiteSpace=wrap;html=1;fillColor=#A9C4EB;" parent="1" vertex="1">
          <mxGeometry x="950" y="-475" width="120" height="30" as="geometry" />
        </mxCell>
        <mxCell id="7UMvpG6QmPXauz13HVyL-18" style="edgeStyle=orthogonalEdgeStyle;rounded=0;orthogonalLoop=1;jettySize=auto;html=1;entryX=0;entryY=0.75;entryDx=0;entryDy=0;fillColor=#A9C4EB;endArrow=none;" parent="1" source="7UMvpG6QmPXauz13HVyL-19" target="7UMvpG6QmPXauz13HVyL-12" edge="1">
          <mxGeometry relative="1" as="geometry">
            <Array as="points">
              <mxPoint x="1080" y="-400" />
              <mxPoint x="1080" y="-420" />
            </Array>
          </mxGeometry>
        </mxCell>
        <mxCell id="7UMvpG6QmPXauz13HVyL-19" value="Contact Information" style="ellipse;whiteSpace=wrap;html=1;fillColor=#A9C4EB;" parent="1" vertex="1">
          <mxGeometry x="950" y="-415" width="120" height="30" as="geometry" />
        </mxCell>
        <mxCell id="7UMvpG6QmPXauz13HVyL-20" style="edgeStyle=orthogonalEdgeStyle;rounded=0;orthogonalLoop=1;jettySize=auto;html=1;exitX=1;exitY=0.5;exitDx=0;exitDy=0;entryX=0.006;entryY=0.328;entryDx=0;entryDy=0;entryPerimeter=0;fillColor=#A9C4EB;endArrow=none;" parent="1" source="7UMvpG6QmPXauz13HVyL-17" target="7UMvpG6QmPXauz13HVyL-12" edge="1">
          <mxGeometry relative="1" as="geometry">
            <Array as="points">
              <mxPoint x="1080" y="-460" />
              <mxPoint x="1080" y="-445" />
            </Array>
          </mxGeometry>
        </mxCell>
        <mxCell id="7UMvpG6QmPXauz13HVyL-26" style="edgeStyle=orthogonalEdgeStyle;rounded=0;orthogonalLoop=1;jettySize=auto;html=1;entryX=0.5;entryY=0;entryDx=0;entryDy=0;fillColor=#A9C4EB;endArrow=none;" parent="1" source="7UMvpG6QmPXauz13HVyL-23" target="7UMvpG6QmPXauz13HVyL-1" edge="1">
          <mxGeometry relative="1" as="geometry" />
        </mxCell>
        <mxCell id="7UMvpG6QmPXauz13HVyL-23" value="belongs to" style="rhombus;whiteSpace=wrap;html=1;fillColor=#FF9999;" parent="1" vertex="1">
          <mxGeometry x="1120" y="-350" width="80" height="80" as="geometry" />
        </mxCell>
        <mxCell id="7UMvpG6QmPXauz13HVyL-52" value="" style="edgeStyle=orthogonalEdgeStyle;rounded=0;orthogonalLoop=1;jettySize=auto;html=1;fillColor=#A9C4EB;endArrow=none;" parent="1" source="7UMvpG6QmPXauz13HVyL-29" target="7UMvpG6QmPXauz13HVyL-32" edge="1">
          <mxGeometry relative="1" as="geometry" />
        </mxCell>
        <mxCell id="7UMvpG6QmPXauz13HVyL-66" value="" style="edgeStyle=orthogonalEdgeStyle;rounded=0;orthogonalLoop=1;jettySize=auto;html=1;fillColor=#A9C4EB;endArrow=none;" parent="1" source="7UMvpG6QmPXauz13HVyL-29" target="7UMvpG6QmPXauz13HVyL-64" edge="1">
          <mxGeometry relative="1" as="geometry" />
        </mxCell>
        <mxCell id="7UMvpG6QmPXauz13HVyL-68" value="" style="edgeStyle=orthogonalEdgeStyle;rounded=0;orthogonalLoop=1;jettySize=auto;html=1;fillColor=#A9C4EB;endArrow=none;" parent="1" source="7UMvpG6QmPXauz13HVyL-29" target="7UMvpG6QmPXauz13HVyL-67" edge="1">
          <mxGeometry relative="1" as="geometry" />
        </mxCell>
        <mxCell id="7UMvpG6QmPXauz13HVyL-29" value="Books" style="rounded=0;whiteSpace=wrap;html=1;fillColor=#FFD966;strokeColor=#C28A55;" parent="1" vertex="1">
          <mxGeometry x="1100" y="81" width="120" height="60" as="geometry" />
        </mxCell>
        <mxCell id="7UMvpG6QmPXauz13HVyL-48" style="edgeStyle=orthogonalEdgeStyle;rounded=0;orthogonalLoop=1;jettySize=auto;html=1;entryX=0.5;entryY=0;entryDx=0;entryDy=0;fillColor=#A9C4EB;endArrow=none;" parent="1" source="7UMvpG6QmPXauz13HVyL-31" target="7UMvpG6QmPXauz13HVyL-29" edge="1">
          <mxGeometry relative="1" as="geometry" />
        </mxCell>
        <mxCell id="7UMvpG6QmPXauz13HVyL-31" value="contains" style="rhombus;whiteSpace=wrap;html=1;fillColor=#FF9999;" parent="1" vertex="1">
          <mxGeometry x="1170" y="-72" width="80" height="80" as="geometry" />
        </mxCell>
        <mxCell id="7UMvpG6QmPXauz13HVyL-63" value="" style="edgeStyle=orthogonalEdgeStyle;rounded=0;orthogonalLoop=1;jettySize=auto;html=1;fillColor=#A9C4EB;endArrow=none;" parent="1" source="7UMvpG6QmPXauz13HVyL-32" target="7UMvpG6QmPXauz13HVyL-53" edge="1">
          <mxGeometry relative="1" as="geometry" />
        </mxCell>
        <mxCell id="7UMvpG6QmPXauz13HVyL-32" value="sold by" style="rhombus;whiteSpace=wrap;html=1;fillColor=#FF9999;" parent="1" vertex="1">
          <mxGeometry x="1120" y="206" width="80" height="80" as="geometry" />
        </mxCell>
        <mxCell id="7UMvpG6QmPXauz13HVyL-47" style="edgeStyle=orthogonalEdgeStyle;rounded=0;orthogonalLoop=1;jettySize=auto;html=1;fillColor=#A9C4EB;endArrow=none;" parent="1" source="7UMvpG6QmPXauz13HVyL-34" target="7UMvpG6QmPXauz13HVyL-29" edge="1">
          <mxGeometry relative="1" as="geometry" />
        </mxCell>
        <mxCell id="7UMvpG6QmPXauz13HVyL-34" value="buys" style="rhombus;whiteSpace=wrap;html=1;fillColor=#FF9999;" parent="1" vertex="1">
          <mxGeometry x="1080" y="-72" width="80" height="80" as="geometry" />
        </mxCell>
        <mxCell id="7UMvpG6QmPXauz13HVyL-36" style="edgeStyle=orthogonalEdgeStyle;rounded=0;orthogonalLoop=1;jettySize=auto;html=1;exitX=1;exitY=0.5;exitDx=0;exitDy=0;entryX=0.25;entryY=1;entryDx=0;entryDy=0;fillColor=#A9C4EB;endArrow=none;" parent="1" source="7UMvpG6QmPXauz13HVyL-37" target="7UMvpG6QmPXauz13HVyL-29" edge="1">
          <mxGeometry relative="1" as="geometry" />
        </mxCell>
        <mxCell id="7UMvpG6QmPXauz13HVyL-37" value="Price" style="ellipse;whiteSpace=wrap;html=1;fillColor=#A9C4EB;" parent="1" vertex="1">
          <mxGeometry x="990" y="146" width="120" height="30" as="geometry" />
        </mxCell>
        <mxCell id="7UMvpG6QmPXauz13HVyL-51" style="edgeStyle=orthogonalEdgeStyle;rounded=0;orthogonalLoop=1;jettySize=auto;html=1;entryX=1;entryY=0.25;entryDx=0;entryDy=0;fillColor=#A9C4EB;endArrow=none;" parent="1" source="7UMvpG6QmPXauz13HVyL-39" target="7UMvpG6QmPXauz13HVyL-29" edge="1">
          <mxGeometry relative="1" as="geometry" />
        </mxCell>
        <mxCell id="7UMvpG6QmPXauz13HVyL-39" value="Genre" style="ellipse;whiteSpace=wrap;html=1;fillColor=#A9C4EB;" parent="1" vertex="1">
          <mxGeometry x="1260" y="51" width="120" height="30" as="geometry" />
        </mxCell>
        <mxCell id="7UMvpG6QmPXauz13HVyL-49" style="edgeStyle=orthogonalEdgeStyle;rounded=0;orthogonalLoop=1;jettySize=auto;html=1;entryX=0;entryY=0.25;entryDx=0;entryDy=0;fillColor=#A9C4EB;endArrow=none;" parent="1" source="7UMvpG6QmPXauz13HVyL-41" target="7UMvpG6QmPXauz13HVyL-29" edge="1">
          <mxGeometry relative="1" as="geometry" />
        </mxCell>
        <mxCell id="7UMvpG6QmPXauz13HVyL-41" value="ISBN" style="ellipse;whiteSpace=wrap;html=1;fillColor=#A9C4EB;" parent="1" vertex="1">
          <mxGeometry x="940" y="48" width="120" height="30" as="geometry" />
        </mxCell>
        <mxCell id="7UMvpG6QmPXauz13HVyL-42" value="Title" style="ellipse;whiteSpace=wrap;html=1;fillColor=#A9C4EB;" parent="1" vertex="1">
          <mxGeometry x="1200" y="146" width="120" height="30" as="geometry" />
        </mxCell>
        <mxCell id="7UMvpG6QmPXauz13HVyL-44" style="edgeStyle=orthogonalEdgeStyle;rounded=0;orthogonalLoop=1;jettySize=auto;html=1;exitX=0;exitY=0.5;exitDx=0;exitDy=0;entryX=0.702;entryY=1.015;entryDx=0;entryDy=0;entryPerimeter=0;fillColor=#A9C4EB;endArrow=none;" parent="1" source="7UMvpG6QmPXauz13HVyL-42" target="7UMvpG6QmPXauz13HVyL-29" edge="1">
          <mxGeometry relative="1" as="geometry" />
        </mxCell>
        <mxCell id="7UMvpG6QmPXauz13HVyL-53" value="Sellers" style="rounded=0;whiteSpace=wrap;html=1;fillColor=#FFD966;strokeColor=#C28A55;" parent="1" vertex="1">
          <mxGeometry x="1100" y="345" width="120" height="60" as="geometry" />
        </mxCell>
        <mxCell id="7UMvpG6QmPXauz13HVyL-54" style="edgeStyle=orthogonalEdgeStyle;rounded=0;orthogonalLoop=1;jettySize=auto;html=1;fillColor=#A9C4EB;endArrow=none;" parent="1" source="7UMvpG6QmPXauz13HVyL-55" target="7UMvpG6QmPXauz13HVyL-53" edge="1">
          <mxGeometry relative="1" as="geometry" />
        </mxCell>
        <mxCell id="7UMvpG6QmPXauz13HVyL-55" value="Name" style="ellipse;whiteSpace=wrap;html=1;fillColor=#A9C4EB;" parent="1" vertex="1">
          <mxGeometry x="960" y="360" width="120" height="30" as="geometry" />
        </mxCell>
        <mxCell id="7UMvpG6QmPXauz13HVyL-56" style="edgeStyle=orthogonalEdgeStyle;rounded=0;orthogonalLoop=1;jettySize=auto;html=1;entryX=1;entryY=0.5;entryDx=0;entryDy=0;fillColor=#A9C4EB;endArrow=none;" parent="1" source="7UMvpG6QmPXauz13HVyL-57" target="7UMvpG6QmPXauz13HVyL-53" edge="1">
          <mxGeometry relative="1" as="geometry" />
        </mxCell>
        <mxCell id="7UMvpG6QmPXauz13HVyL-57" value="Location" style="ellipse;whiteSpace=wrap;html=1;fillColor=#A9C4EB;" parent="1" vertex="1">
          <mxGeometry x="1275" y="375" width="120" height="30" as="geometry" />
        </mxCell>
        <mxCell id="7UMvpG6QmPXauz13HVyL-58" style="edgeStyle=orthogonalEdgeStyle;rounded=0;orthogonalLoop=1;jettySize=auto;html=1;entryX=1;entryY=0.25;entryDx=0;entryDy=0;fillColor=#A9C4EB;endArrow=none;" parent="1" source="7UMvpG6QmPXauz13HVyL-59" target="7UMvpG6QmPXauz13HVyL-53" edge="1">
          <mxGeometry relative="1" as="geometry" />
        </mxCell>
        <mxCell id="7UMvpG6QmPXauz13HVyL-59" value="Contact Information" style="ellipse;whiteSpace=wrap;html=1;fillColor=#A9C4EB;" parent="1" vertex="1">
          <mxGeometry x="1275" y="330" width="120" height="30" as="geometry" />
        </mxCell>
        <mxCell id="7UMvpG6QmPXauz13HVyL-60" style="edgeStyle=orthogonalEdgeStyle;rounded=0;orthogonalLoop=1;jettySize=auto;html=1;entryX=0.5;entryY=1;entryDx=0;entryDy=0;fillColor=#A9C4EB;endArrow=none;" parent="1" source="7UMvpG6QmPXauz13HVyL-61" target="7UMvpG6QmPXauz13HVyL-53" edge="1">
          <mxGeometry relative="1" as="geometry" />
        </mxCell>
        <mxCell id="7UMvpG6QmPXauz13HVyL-61" value="&lt;u&gt;SellerID&lt;/u&gt;" style="ellipse;whiteSpace=wrap;html=1;fillColor=#A9C4EB;" parent="1" vertex="1">
          <mxGeometry x="1100" y="430" width="120" height="30" as="geometry" />
        </mxCell>
        <mxCell id="7UMvpG6QmPXauz13HVyL-76" value="" style="edgeStyle=orthogonalEdgeStyle;rounded=0;orthogonalLoop=1;jettySize=auto;html=1;fillColor=#A9C4EB;endArrow=none;" parent="1" source="7UMvpG6QmPXauz13HVyL-64" target="7UMvpG6QmPXauz13HVyL-69" edge="1">
          <mxGeometry relative="1" as="geometry" />
        </mxCell>
        <mxCell id="7UMvpG6QmPXauz13HVyL-64" value="written by" style="rhombus;whiteSpace=wrap;html=1;fillColor=#FF9999;" parent="1" vertex="1">
          <mxGeometry x="1370" y="71" width="80" height="80" as="geometry" />
        </mxCell>
        <mxCell id="7UMvpG6QmPXauz13HVyL-67" value="publish" style="rhombus;whiteSpace=wrap;html=1;fillColor=#FF9999;" parent="1" vertex="1">
          <mxGeometry x="860" y="71" width="80" height="80" as="geometry" />
        </mxCell>
        <mxCell id="7UMvpG6QmPXauz13HVyL-69" value="Authors" style="rounded=0;whiteSpace=wrap;html=1;fillColor=#FFD966;strokeColor=#C28A55;" parent="1" vertex="1">
          <mxGeometry x="1489" y="81" width="120" height="60" as="geometry" />
        </mxCell>
        <mxCell id="7UMvpG6QmPXauz13HVyL-70" style="edgeStyle=orthogonalEdgeStyle;rounded=0;orthogonalLoop=1;jettySize=auto;html=1;fillColor=#A9C4EB;endArrow=none;" parent="1" source="7UMvpG6QmPXauz13HVyL-71" target="7UMvpG6QmPXauz13HVyL-69" edge="1">
          <mxGeometry relative="1" as="geometry" />
        </mxCell>
        <mxCell id="7UMvpG6QmPXauz13HVyL-71" value="&lt;u&gt;AuthorID&lt;/u&gt;" style="ellipse;whiteSpace=wrap;html=1;fillColor=#A9C4EB;" parent="1" vertex="1">
          <mxGeometry x="1489" y="28" width="120" height="30" as="geometry" />
        </mxCell>
        <mxCell id="7UMvpG6QmPXauz13HVyL-72" style="edgeStyle=orthogonalEdgeStyle;rounded=0;orthogonalLoop=1;jettySize=auto;html=1;fillColor=#A9C4EB;endArrow=none;" parent="1" source="7UMvpG6QmPXauz13HVyL-73" target="7UMvpG6QmPXauz13HVyL-69" edge="1">
          <mxGeometry relative="1" as="geometry" />
        </mxCell>
        <mxCell id="7UMvpG6QmPXauz13HVyL-73" value="Name" style="ellipse;whiteSpace=wrap;html=1;fillColor=#A9C4EB;" parent="1" vertex="1">
          <mxGeometry x="1629" y="96" width="120" height="30" as="geometry" />
        </mxCell>
        <mxCell id="7UMvpG6QmPXauz13HVyL-74" style="edgeStyle=orthogonalEdgeStyle;rounded=0;orthogonalLoop=1;jettySize=auto;html=1;exitX=0.5;exitY=0;exitDx=0;exitDy=0;entryX=0.5;entryY=1;entryDx=0;entryDy=0;fillColor=#A9C4EB;endArrow=none;" parent="1" source="7UMvpG6QmPXauz13HVyL-75" target="7UMvpG6QmPXauz13HVyL-69" edge="1">
          <mxGeometry relative="1" as="geometry" />
        </mxCell>
        <mxCell id="7UMvpG6QmPXauz13HVyL-75" value="Contact Information" style="ellipse;whiteSpace=wrap;html=1;fillColor=#A9C4EB;" parent="1" vertex="1">
          <mxGeometry x="1489" y="161" width="120" height="30" as="geometry" />
        </mxCell>
        <mxCell id="7UMvpG6QmPXauz13HVyL-93" value="" style="edgeStyle=orthogonalEdgeStyle;rounded=0;orthogonalLoop=1;jettySize=auto;html=1;fillColor=#A9C4EB;endArrow=none;" parent="1" source="7UMvpG6QmPXauz13HVyL-77" target="7UMvpG6QmPXauz13HVyL-67" edge="1">
          <mxGeometry relative="1" as="geometry" />
        </mxCell>
        <mxCell id="7UMvpG6QmPXauz13HVyL-77" value="Publisher" style="rounded=0;whiteSpace=wrap;html=1;fillColor=#FFD966;strokeColor=#C28A55;" parent="1" vertex="1">
          <mxGeometry x="674" y="81" width="120" height="60" as="geometry" />
        </mxCell>
        <mxCell id="7UMvpG6QmPXauz13HVyL-81" value="Contact Information" style="ellipse;whiteSpace=wrap;html=1;fillColor=#A9C4EB;" parent="1" vertex="1">
          <mxGeometry x="740" y="176.5" width="120" height="30" as="geometry" />
        </mxCell>
        <mxCell id="7UMvpG6QmPXauz13HVyL-94" style="edgeStyle=orthogonalEdgeStyle;rounded=0;orthogonalLoop=1;jettySize=auto;html=1;entryX=0.75;entryY=0;entryDx=0;entryDy=0;fillColor=#A9C4EB;endArrow=none;" parent="1" source="7UMvpG6QmPXauz13HVyL-83" target="7UMvpG6QmPXauz13HVyL-77" edge="1">
          <mxGeometry relative="1" as="geometry" />
        </mxCell>
        <mxCell id="7UMvpG6QmPXauz13HVyL-83" value="Location" style="ellipse;whiteSpace=wrap;html=1;fillColor=#A9C4EB;" parent="1" vertex="1">
          <mxGeometry x="753" y="18" width="120" height="30" as="geometry" />
        </mxCell>
        <mxCell id="7UMvpG6QmPXauz13HVyL-85" value="&lt;u&gt;PublisherID&lt;/u&gt;" style="ellipse;whiteSpace=wrap;html=1;fillColor=#A9C4EB;" parent="1" vertex="1">
          <mxGeometry x="610" y="18" width="120" height="30" as="geometry" />
        </mxCell>
        <mxCell id="7UMvpG6QmPXauz13HVyL-86" value="Name" style="ellipse;whiteSpace=wrap;html=1;fillColor=#A9C4EB;" parent="1" vertex="1">
          <mxGeometry x="610" y="176.5" width="120" height="30" as="geometry" />
        </mxCell>
        <mxCell id="7UMvpG6QmPXauz13HVyL-87" style="edgeStyle=orthogonalEdgeStyle;rounded=0;orthogonalLoop=1;jettySize=auto;html=1;entryX=0.339;entryY=0.974;entryDx=0;entryDy=0;entryPerimeter=0;fillColor=#A9C4EB;endArrow=none;" parent="1" source="7UMvpG6QmPXauz13HVyL-86" target="7UMvpG6QmPXauz13HVyL-77" edge="1">
          <mxGeometry relative="1" as="geometry" />
        </mxCell>
        <mxCell id="7UMvpG6QmPXauz13HVyL-90" style="edgeStyle=orthogonalEdgeStyle;rounded=0;orthogonalLoop=1;jettySize=auto;html=1;entryX=0.383;entryY=0.033;entryDx=0;entryDy=0;entryPerimeter=0;fillColor=#A9C4EB;endArrow=none;" parent="1" source="7UMvpG6QmPXauz13HVyL-85" target="7UMvpG6QmPXauz13HVyL-77" edge="1">
          <mxGeometry relative="1" as="geometry" />
        </mxCell>
        <mxCell id="7UMvpG6QmPXauz13HVyL-95" style="edgeStyle=orthogonalEdgeStyle;rounded=0;orthogonalLoop=1;jettySize=auto;html=1;entryX=0.65;entryY=0.993;entryDx=0;entryDy=0;entryPerimeter=0;fillColor=#A9C4EB;endArrow=none;" parent="1" source="7UMvpG6QmPXauz13HVyL-81" target="7UMvpG6QmPXauz13HVyL-77" edge="1">
          <mxGeometry relative="1" as="geometry" />
        </mxCell>
        <mxCell id="7UMvpG6QmPXauz13HVyL-97" value="N" style="text;html=1;align=center;verticalAlign=middle;resizable=0;points=[];autosize=1;strokeColor=none;fillColor=none;" parent="1" vertex="1">
          <mxGeometry x="1150" y="-372" width="30" height="30" as="geometry" />
        </mxCell>
        <mxCell id="7UMvpG6QmPXauz13HVyL-98" value="1" style="text;html=1;align=center;verticalAlign=middle;resizable=0;points=[];autosize=1;strokeColor=none;fillColor=none;" parent="1" vertex="1">
          <mxGeometry x="1150" y="-280" width="30" height="30" as="geometry" />
        </mxCell>
        <mxCell id="7UMvpG6QmPXauz13HVyL-99" value="1" style="text;html=1;align=center;verticalAlign=middle;resizable=0;points=[];autosize=1;strokeColor=none;fillColor=none;" parent="1" vertex="1">
          <mxGeometry x="1200" y="-92" width="30" height="30" as="geometry" />
        </mxCell>
        <mxCell id="7UMvpG6QmPXauz13HVyL-100" value="1" style="text;html=1;align=center;verticalAlign=middle;resizable=0;points=[];autosize=1;strokeColor=none;fillColor=none;" parent="1" vertex="1">
          <mxGeometry x="1110" y="-92" width="30" height="30" as="geometry" />
        </mxCell>
        <mxCell id="7UMvpG6QmPXauz13HVyL-101" value="N" style="text;html=1;align=center;verticalAlign=middle;resizable=0;points=[];autosize=1;strokeColor=none;fillColor=none;" parent="1" vertex="1">
          <mxGeometry x="1110" width="30" height="30" as="geometry" />
        </mxCell>
        <mxCell id="7UMvpG6QmPXauz13HVyL-102" value="N" style="text;html=1;align=center;verticalAlign=middle;resizable=0;points=[];autosize=1;strokeColor=none;fillColor=none;" parent="1" vertex="1">
          <mxGeometry x="1200" width="30" height="30" as="geometry" />
        </mxCell>
        <mxCell id="7UMvpG6QmPXauz13HVyL-103" value="N" style="text;html=1;align=center;verticalAlign=middle;resizable=0;points=[];autosize=1;strokeColor=none;fillColor=none;" parent="1" vertex="1">
          <mxGeometry x="930" y="90" width="30" height="30" as="geometry" />
        </mxCell>
        <mxCell id="7UMvpG6QmPXauz13HVyL-104" value="N" style="text;html=1;align=center;verticalAlign=middle;resizable=0;points=[];autosize=1;strokeColor=none;fillColor=none;" parent="1" vertex="1">
          <mxGeometry x="840" y="90" width="30" height="30" as="geometry" />
        </mxCell>
        <mxCell id="7UMvpG6QmPXauz13HVyL-107" value="N" style="text;html=1;align=center;verticalAlign=middle;resizable=0;points=[];autosize=1;strokeColor=none;fillColor=none;" parent="1" vertex="1">
          <mxGeometry x="1450" y="90" width="30" height="30" as="geometry" />
        </mxCell>
        <mxCell id="7UMvpG6QmPXauz13HVyL-108" value="N" style="text;html=1;align=center;verticalAlign=middle;resizable=0;points=[];autosize=1;strokeColor=none;fillColor=none;" parent="1" vertex="1">
          <mxGeometry x="1340" y="90" width="30" height="30" as="geometry" />
        </mxCell>
        <mxCell id="7UMvpG6QmPXauz13HVyL-109" value="N" style="text;html=1;align=center;verticalAlign=middle;resizable=0;points=[];autosize=1;strokeColor=none;fillColor=none;" parent="1" vertex="1">
          <mxGeometry x="1150" y="176.5" width="30" height="30" as="geometry" />
        </mxCell>
        <mxCell id="7UMvpG6QmPXauz13HVyL-110" value="N" style="text;html=1;align=center;verticalAlign=middle;resizable=0;points=[];autosize=1;strokeColor=none;fillColor=none;" parent="1" vertex="1">
          <mxGeometry x="1150" y="286" width="30" height="30" as="geometry" />
        </mxCell>
        <mxCell id="7UMvpG6QmPXauz13HVyL-112" value="Members" style="rounded=0;whiteSpace=wrap;html=1;fillColor=#FFD966;strokeColor=#C28A55;" parent="1" vertex="1">
          <mxGeometry x="1460" y="-190" width="120" height="60" as="geometry" />
        </mxCell>
        <mxCell id="7UMvpG6QmPXauz13HVyL-130" value="" style="edgeStyle=orthogonalEdgeStyle;rounded=0;orthogonalLoop=1;jettySize=auto;html=1;endArrow=none;" parent="1" source="7UMvpG6QmPXauz13HVyL-114" target="7UMvpG6QmPXauz13HVyL-112" edge="1">
          <mxGeometry relative="1" as="geometry" />
        </mxCell>
        <mxCell id="7UMvpG6QmPXauz13HVyL-114" value="has" style="rhombus;whiteSpace=wrap;html=1;fillColor=#FF9999;" parent="1" vertex="1">
          <mxGeometry x="1300" y="-200" width="80" height="80" as="geometry" />
        </mxCell>
        <mxCell id="7UMvpG6QmPXauz13HVyL-115" style="edgeStyle=orthogonalEdgeStyle;rounded=0;orthogonalLoop=1;jettySize=auto;html=1;exitX=0;exitY=0.5;exitDx=0;exitDy=0;entryX=0.75;entryY=0;entryDx=0;entryDy=0;fillColor=#A9C4EB;endArrow=none;" parent="1" source="7UMvpG6QmPXauz13HVyL-116" target="7UMvpG6QmPXauz13HVyL-112" edge="1">
          <mxGeometry relative="1" as="geometry" />
        </mxCell>
        <mxCell id="7UMvpG6QmPXauz13HVyL-116" value="&lt;u&gt;MemberID&lt;/u&gt;" style="ellipse;whiteSpace=wrap;html=1;fillColor=#A9C4EB;" parent="1" vertex="1">
          <mxGeometry x="1580" y="-240" width="120" height="30" as="geometry" />
        </mxCell>
        <mxCell id="7UMvpG6QmPXauz13HVyL-117" style="edgeStyle=orthogonalEdgeStyle;rounded=0;orthogonalLoop=1;jettySize=auto;html=1;entryX=0.75;entryY=1;entryDx=0;entryDy=0;fillColor=#A9C4EB;endArrow=none;" parent="1" source="7UMvpG6QmPXauz13HVyL-118" target="7UMvpG6QmPXauz13HVyL-112" edge="1">
          <mxGeometry relative="1" as="geometry">
            <Array as="points">
              <mxPoint x="1550" y="-95" />
            </Array>
          </mxGeometry>
        </mxCell>
        <mxCell id="7UMvpG6QmPXauz13HVyL-118" value="Name" style="ellipse;whiteSpace=wrap;html=1;fillColor=#A9C4EB;" parent="1" vertex="1">
          <mxGeometry x="1580" y="-110" width="120" height="30" as="geometry" />
        </mxCell>
        <mxCell id="7UMvpG6QmPXauz13HVyL-124" value="" style="edgeStyle=orthogonalEdgeStyle;rounded=0;orthogonalLoop=1;jettySize=auto;html=1;fillColor=#A9C4EB;endArrow=none;" parent="1" source="7UMvpG6QmPXauz13HVyL-119" target="7UMvpG6QmPXauz13HVyL-112" edge="1">
          <mxGeometry relative="1" as="geometry" />
        </mxCell>
        <mxCell id="7UMvpG6QmPXauz13HVyL-119" value="Membership Type" style="ellipse;whiteSpace=wrap;html=1;fillColor=#A9C4EB;" parent="1" vertex="1">
          <mxGeometry x="1460" y="-270" width="120" height="30" as="geometry" />
        </mxCell>
        <mxCell id="7UMvpG6QmPXauz13HVyL-125" value="" style="edgeStyle=orthogonalEdgeStyle;rounded=0;orthogonalLoop=1;jettySize=auto;html=1;fillColor=#A9C4EB;endArrow=none;" parent="1" source="7UMvpG6QmPXauz13HVyL-121" target="7UMvpG6QmPXauz13HVyL-112" edge="1">
          <mxGeometry relative="1" as="geometry" />
        </mxCell>
        <mxCell id="7UMvpG6QmPXauz13HVyL-121" value="Contact Information" style="ellipse;whiteSpace=wrap;html=1;fillColor=#A9C4EB;" parent="1" vertex="1">
          <mxGeometry x="1460" y="-80" width="120" height="30" as="geometry" />
        </mxCell>
        <mxCell id="7UMvpG6QmPXauz13HVyL-131" value="1" style="text;html=1;align=center;verticalAlign=middle;resizable=0;points=[];autosize=1;strokeColor=none;fillColor=none;" parent="1" vertex="1">
          <mxGeometry x="1270" y="-180" width="30" height="30" as="geometry" />
        </mxCell>
        <mxCell id="7UMvpG6QmPXauz13HVyL-132" value="N" style="text;html=1;align=center;verticalAlign=middle;resizable=0;points=[];autosize=1;strokeColor=none;fillColor=none;" parent="1" vertex="1">
          <mxGeometry x="1380" y="-180" width="30" height="30" as="geometry" />
        </mxCell>
      </root>
    </mxGraphModel>
  </diagram>
</mxfile>
